<?xml version="1.0" encoding="UTF-8" standalone="no"?>
<svg
   xmlns:dc="http://purl.org/dc/elements/1.1/"
   xmlns:cc="http://creativecommons.org/ns#"
   xmlns:rdf="http://www.w3.org/1999/02/22-rdf-syntax-ns#"
   xmlns:svg="http://www.w3.org/2000/svg"
   xmlns="http://www.w3.org/2000/svg"
   xmlns:xlink="http://www.w3.org/1999/xlink"
   height="84.984001"
   width="96"
   id="svg27"
   version="1.1"
   viewBox="0 0 96 84.984001">
  <metadata
     id="metadata31">
    <rdf:RDF>
      <cc:Work
         rdf:about="">
        <dc:format>image/svg+xml</dc:format>
        <dc:type
           rdf:resource="http://purl.org/dc/dcmitype/StillImage" />
      </cc:Work>
    </rdf:RDF>
  </metadata>
  <defs
     id="defs15">
    <circle
       r="28"
       cy="28"
       cx="48"
       id="b" />
    <filter
       id="a"
       height="1.25"
       width="1.25"
       y="-0.088999994"
       x="-0.125">
      <feOffset
         id="feOffset3"
         result="shadowOffsetOuter1"
         in="SourceAlpha"
         dy="2" />
      <feGaussianBlur
         id="feGaussianBlur5"
         result="shadowBlurOuter1"
         in="shadowOffsetOuter1"
         stdDeviation="2" />
      <feColorMatrix
         id="feColorMatrix7"
         in="shadowBlurOuter1"
         values="0 0 0 0 0 0 0 0 0 0 0 0 0 0 0 0 0 0 0.1 0" />
    </filter>
    <linearGradient
       gradientUnits="userSpaceOnUse"
       x2="52.672574"
       gradientTransform="matrix(1.2909944,0,0,0.77459667,0,4.9839997)"
       id="c"
       y2="51.639778"
       y1="20.655911"
       x1="21.688707">
      <stop
         id="stop10"
         offset="0%"
         stop-color="#2383AE" />
      <stop
         id="stop12"
         offset="100%"
         stop-color="#6DD7B9" />
    </linearGradient>
  </defs>
  <g
     id="g21"
     transform="translate(0,4.9839997)">
    <use
       height="100%"
       width="100%"
       y="0"
       x="0"
       style="filter:url(#a)"
       id="use17"
       xlink:href="#b" />
    <use
       height="100%"
       width="100%"
       y="0"
       x="0"
       style="fill:#ffffff"
       id="use19"
       xlink:href="#b" />
  </g>
  <path
     style="fill:url(#c)"
     id="path23"
     d="m 38,28.984 c 1.333,-5.333 4.667,-8 10,-8 8,0 9,6 13,7 2.667,0.667 5,-0.333 7,-3 -1.333,5.333 -4.667,8 -10,8 -8,0 -9,-6 -13,-7 -2.667,-0.667 -5,0.333 -7,3 z m -10,12 c 1.333,-5.333 4.667,-8 10,-8 8,0 9,6 13,7 2.667,0.667 5,-0.333 7,-3 -1.333,5.333 -4.667,8 -10,8 -8,0 -9,-6 -13,-7 -2.667,-0.667 -5,0.333 -7,3 z" />
  <path
     style="fill:#24292e"
     id="path25"
     d="M 3.445,75.336 H 0 v -2.064 h 9.294 v 2.064 H 5.85 v 9.36 H 3.445 Z m 10.347,8.304 c -0.33,0.373 -0.702,0.677 -1.114,0.912 -0.41,0.235 -0.942,0.352 -1.594,0.352 -0.374,0 -0.73,-0.048 -1.065,-0.144 A 2.449,2.449 0 0 1 9.136,84.312 2.19,2.19 0 0 1 8.536,83.536 C 8.386,83.221 8.311,82.846 8.311,82.408 8.311,81.832 8.439,81.363 8.696,81 a 2.607,2.607 0 0 1 1.01,-0.848 5.042,5.042 0 0 1 1.4,-0.432 c 0.52,-0.085 1.045,-0.14 1.58,-0.16 l 1.073,-0.048 v -0.416 c 0,-0.512 -0.14,-0.864 -0.425,-1.056 a 1.737,1.737 0 0 0 -1,-0.288 c -0.888,0 -1.395,0.336 -1.523,1.008 l -2.05,-0.192 c 0.148,-0.875 0.533,-1.507 1.152,-1.896 0.62,-0.39 1.453,-0.584 2.5,-0.584 0.64,0 1.186,0.077 1.634,0.232 0.45,0.155 0.81,0.376 1.082,0.664 0.272,0.288 0.47,0.637 0.593,1.048 0.123,0.41 0.184,0.872 0.184,1.384 v 5.28 H 13.791 V 83.64 Z m -0.048,-2.672 -0.993,0.048 c -0.47,0.02 -0.85,0.07 -1.137,0.144 -0.288,0.075 -0.51,0.168 -0.665,0.28 a 0.825,0.825 0 0 0 -0.312,0.392 c -0.054,0.15 -0.08,0.315 -0.08,0.496 0,0.277 0.096,0.496 0.288,0.656 0.192,0.16 0.46,0.24 0.8,0.24 0.578,0 1.048,-0.133 1.41,-0.4 0.204,-0.15 0.37,-0.34 0.498,-0.568 0.128,-0.23 0.192,-0.515 0.192,-0.856 v -0.432 z m 3.986,-4.624 h 2.243 v 8.352 H 17.73 Z m -0.032,-3.072 h 2.307 v 2.016 h -2.307 z m 4.194,0 h 2.243 v 11.424 h -2.243 z m 3.25,3.072 h 2.434 l 1.17,5.536 1.602,-5.472 h 1.955 l 1.522,5.472 1.17,-5.536 h 2.34 l -2.436,8.352 h -2.18 l -1.49,-5.504 -1.507,5.504 H 27.575 L 25.14,76.344 Z m 13.198,0 h 2.243 v 8.352 H 38.34 Z m -0.032,-3.072 h 2.307 v 2.016 h -2.307 z m 4.178,3.072 h 2.18 v 1.152 c 0.33,-0.49 0.723,-0.848 1.177,-1.072 a 3.168,3.168 0 0 1 1.418,-0.336 c 0.952,0 1.657,0.248 2.116,0.744 0.46,0.496 0.69,1.277 0.69,2.344 v 5.52 H 47.82 V 79.48 c 0,-0.587 -0.112,-0.987 -0.337,-1.2 -0.224,-0.213 -0.523,-0.32 -0.897,-0.32 -0.288,0 -0.537,0.043 -0.745,0.128 a 2.073,2.073 0 0 0 -0.585,0.368 c -0.15,0.15 -0.275,0.328 -0.377,0.536 -0.1,0.208 -0.15,0.435 -0.15,0.68 v 5.024 h -2.244 v -8.352 z m 15.186,7.248 c -0.64,0.907 -1.506,1.36 -2.596,1.36 -1.175,0 -2.05,-0.395 -2.628,-1.184 -0.576,-0.79 -0.865,-1.883 -0.865,-3.28 0,-0.65 0.083,-1.245 0.25,-1.784 0.164,-0.54 0.402,-1.003 0.712,-1.392 0.31,-0.39 0.69,-0.69 1.137,-0.904 0.45,-0.213 0.956,-0.32 1.523,-0.32 0.416,0 0.83,0.075 1.24,0.224 0.413,0.15 0.8,0.437 1.163,0.864 v -3.904 h 2.243 v 11.424 h -2.178 v -1.104 z m -0.048,-3.168 c 0,-0.533 -0.045,-0.96 -0.136,-1.28 a 1.77,1.77 0 0 0 -0.44,-0.784 1.382,1.382 0 0 0 -0.634,-0.376 2.679,2.679 0 0 0 -0.68,-0.088 c -0.246,0 -0.48,0.048 -0.698,0.144 -0.22,0.096 -0.41,0.245 -0.577,0.448 a 2.24,2.24 0 0 0 -0.393,0.8 c -0.096,0.33 -0.144,0.725 -0.144,1.184 0,0.5 0.045,0.92 0.136,1.256 0.09,0.336 0.215,0.608 0.375,0.816 0.16,0.208 0.348,0.357 0.56,0.448 0.215,0.09 0.445,0.136 0.69,0.136 0.534,0 0.972,-0.155 1.314,-0.464 0.213,-0.213 0.37,-0.472 0.472,-0.776 0.1,-0.304 0.152,-0.696 0.152,-1.176 v -0.288 z m 17.538,0.32 a 5.277,5.277 0 0 1 -0.425,1.688 4.16,4.16 0 0 1 -0.945,1.344 c -0.4,0.38 -0.892,0.675 -1.475,0.888 -0.582,0.213 -1.257,0.32 -2.026,0.32 -0.865,0 -1.626,-0.144 -2.283,-0.432 a 4.488,4.488 0 0 1 -1.65,-1.216 C 65.914,82.813 65.581,82.181 65.356,81.44 65.132,80.7 65.02,79.88 65.02,78.984 c 0,-0.928 0.122,-1.76 0.367,-2.496 0.246,-0.736 0.6,-1.365 1.058,-1.888 a 4.573,4.573 0 0 1 1.666,-1.2 c 0.653,-0.277 1.39,-0.416 2.213,-0.416 0.726,0 1.36,0.09 1.898,0.272 0.54,0.18 0.995,0.443 1.363,0.784 0.37,0.34 0.665,0.752 0.89,1.232 0.224,0.48 0.39,1.02 0.496,1.616 l -2.372,0.304 c -0.118,-0.672 -0.345,-1.2 -0.68,-1.584 -0.338,-0.384 -0.87,-0.576 -1.595,-0.576 -0.92,0 -1.616,0.344 -2.09,1.032 -0.477,0.688 -0.715,1.66 -0.715,2.92 0,1.27 0.254,2.245 0.762,2.928 0.507,0.683 1.188,1.024 2.043,1.024 0.737,0 1.28,-0.19 1.626,-0.568 0.346,-0.38 0.562,-0.92 0.648,-1.624 z m 3.49,0.224 c 0.052,0.704 0.28,1.216 0.68,1.536 0.4,0.32 0.99,0.48 1.77,0.48 0.374,0 0.69,-0.04 0.946,-0.12 0.256,-0.08 0.464,-0.187 0.625,-0.32 0.16,-0.133 0.275,-0.29 0.344,-0.472 0.07,-0.18 0.104,-0.38 0.104,-0.592 0,-0.3 -0.11,-0.58 -0.335,-0.84 -0.225,-0.26 -0.636,-0.45 -1.234,-0.568 L 80.062,79.8 a 8.84,8.84 0 0 1 -1.554,-0.416 3.594,3.594 0 0 1 -1.13,-0.664 2.66,2.66 0 0 1 -0.696,-1 c -0.16,-0.395 -0.24,-0.864 -0.24,-1.408 0,-0.544 0.11,-1.024 0.328,-1.44 0.22,-0.416 0.523,-0.763 0.913,-1.04 0.39,-0.277 0.86,-0.488 1.403,-0.632 a 7.015,7.015 0 0 1 1.795,-0.216 c 0.833,0 1.528,0.096 2.083,0.288 0.556,0.192 1.005,0.445 1.347,0.76 0.342,0.315 0.595,0.68 0.76,1.096 a 5.1,5.1 0 0 1 0.33,1.296 l -2.26,0.288 c -0.117,-0.63 -0.344,-1.083 -0.68,-1.36 -0.337,-0.277 -0.847,-0.416 -1.53,-0.416 -0.407,0 -0.74,0.035 -1.002,0.104 -0.262,0.07 -0.473,0.16 -0.633,0.272 a 0.935,0.935 0 0 0 -0.337,0.392 c -0.064,0.15 -0.096,0.304 -0.096,0.464 0,0.427 0.12,0.747 0.36,0.96 0.24,0.213 0.648,0.38 1.225,0.496 l 1.57,0.304 c 1.24,0.245 2.148,0.643 2.725,1.192 0.576,0.55 0.865,1.34 0.865,2.376 0,0.5 -0.094,0.963 -0.28,1.384 -0.188,0.42 -0.465,0.79 -0.834,1.104 -0.367,0.315 -0.83,0.56 -1.385,0.736 -0.555,0.176 -1.207,0.264 -1.955,0.264 -1.56,0 -2.753,-0.333 -3.58,-1 -0.83,-0.667 -1.275,-1.672 -1.34,-3.016 h 2.42 z m 10.394,0 c 0.053,0.704 0.28,1.216 0.68,1.536 0.4,0.32 0.992,0.48 1.77,0.48 0.375,0 0.69,-0.04 0.947,-0.12 0.256,-0.08 0.464,-0.187 0.625,-0.32 0.16,-0.133 0.275,-0.29 0.344,-0.472 0.07,-0.18 0.104,-0.38 0.104,-0.592 0,-0.3 -0.112,-0.58 -0.336,-0.84 -0.224,-0.26 -0.636,-0.45 -1.234,-0.568 L 90.456,79.8 a 8.792,8.792 0 0 1 -1.554,-0.416 3.56,3.56 0 0 1 -1.13,-0.664 2.663,2.663 0 0 1 -0.697,-1 c -0.16,-0.395 -0.24,-0.864 -0.24,-1.408 0,-0.544 0.11,-1.024 0.328,-1.44 a 2.96,2.96 0 0 1 0.913,-1.04 4.3,4.3 0 0 1 1.402,-0.632 7.015,7.015 0 0 1 1.795,-0.216 c 0.833,0 1.528,0.096 2.083,0.288 0.556,0.192 1.004,0.445 1.346,0.76 0.342,0.315 0.596,0.68 0.76,1.096 a 5.1,5.1 0 0 1 0.33,1.296 l -2.26,0.288 c -0.117,-0.63 -0.344,-1.083 -0.68,-1.36 -0.337,-0.277 -0.847,-0.416 -1.53,-0.416 -0.407,0 -0.74,0.035 -1.002,0.104 -0.262,0.07 -0.473,0.16 -0.633,0.272 a 0.935,0.935 0 0 0 -0.337,0.392 c -0.064,0.15 -0.096,0.304 -0.096,0.464 0,0.427 0.12,0.747 0.36,0.96 0.24,0.213 0.65,0.38 1.226,0.496 l 1.57,0.304 c 1.24,0.245 2.148,0.643 2.725,1.192 0.577,0.55 0.865,1.34 0.865,2.376 0,0.5 -0.093,0.963 -0.28,1.384 a 3.09,3.09 0 0 1 -0.834,1.104 c -0.368,0.315 -0.83,0.56 -1.386,0.736 -0.555,0.176 -1.207,0.264 -1.954,0.264 -1.56,0 -2.754,-0.333 -3.582,-1 -0.828,-0.667 -1.274,-1.672 -1.338,-3.016 z" />
</svg>
